<?xml version="1.0" encoding="utf-8"?>
<!-- Generator: Adobe Illustrator 16.0.3, SVG Export Plug-In . SVG Version: 6.00 Build 0)  -->
<!DOCTYPE svg PUBLIC "-//W3C//DTD SVG 1.1//EN" "http://www.w3.org/Graphics/SVG/1.1/DTD/svg11.dtd">
<svg version="1.1" id="Site_map" xmlns="http://www.w3.org/2000/svg" xmlns:xlink="http://www.w3.org/1999/xlink" x="0px" y="0px"
	 width="1280px" height="800px" viewBox="0 0 1280 800" enable-background="new 0 0 1280 800" xml:space="preserve">
<rect x="47.5" y="272.5" fill="#FFFFFF" stroke="#020202" stroke-miterlimit="10" width="192" height="83"/>
<rect x="310.5" y="158.5" fill="#FFFFFF" stroke="#020202" stroke-miterlimit="10" width="192" height="83"/>
<rect x="321.5" y="450.5" fill="#FFFFFF" stroke="#020202" stroke-miterlimit="10" width="192" height="83"/>
<rect x="599.5" y="82.5" fill="#FFFFFF" stroke="#020202" stroke-miterlimit="10" width="192" height="83"/>
<rect x="600.5" y="184.5" fill="#FFFFFF" stroke="#020202" stroke-miterlimit="10" width="192" height="83"/>
<rect x="600.5" y="293.5" fill="#FFFFFF" stroke="#020202" stroke-miterlimit="10" width="192" height="83"/>
<rect x="594.5" y="450.5" fill="#FFFFFF" stroke="#020202" stroke-miterlimit="10" width="192" height="83"/>
<rect x="839.5" y="451.5" fill="#FFFFFF" stroke="#020202" stroke-miterlimit="10" width="192" height="83"/>
<rect x="1070.5" y="451.5" fill="#FFFFFF" stroke="#020202" stroke-miterlimit="10" width="192" height="83"/>
<line fill="none" stroke="#020202" stroke-miterlimit="10" x1="239" y1="321.5" x2="288" y2="321.5"/>
<line fill="none" stroke="#020202" stroke-miterlimit="10" x1="288" y1="203.5" x2="310" y2="203.5"/>
<line fill="none" stroke="#020202" stroke-miterlimit="10" x1="287.5" y1="204" x2="287.5" y2="322"/>
<line fill="none" stroke="#020202" stroke-miterlimit="10" x1="288" y1="321.5" x2="287.5" y2="469"/>
<line fill="none" stroke="#020202" stroke-miterlimit="10" x1="321" y1="492.5" x2="288" y2="492.5"/>
<line fill="none" stroke="#020202" stroke-miterlimit="10" x1="287.5" y1="469" x2="288" y2="492.5"/>
<line fill="none" stroke="#020202" stroke-miterlimit="10" x1="513.5" y1="492.5" x2="594.5" y2="492"/>
<line fill="none" stroke="#020202" stroke-miterlimit="10" x1="786" y1="489.5" x2="839" y2="489.5"/>
<line fill="none" stroke="#020202" stroke-miterlimit="10" x1="1031.5" y1="492" x2="1069.5" y2="492.5"/>
<line fill="none" stroke="#020202" stroke-miterlimit="10" x1="560.5" y1="492" x2="560.5" y2="124"/>
<line fill="none" stroke="#020202" stroke-miterlimit="10" x1="599" y1="124.5" x2="560" y2="124.5"/>
<line fill="none" stroke="#020202" stroke-miterlimit="10" x1="600" y1="226.5" x2="561" y2="226.5"/>
<line fill="none" stroke="#020202" stroke-miterlimit="10" x1="600" y1="335.5" x2="561" y2="335.5"/>
<text transform="matrix(1 0 0 1 95.1421 314.5513)" font-family="'CourierNewPS-BoldMT'" font-size="18">home page</text>
<text transform="matrix(1 0 0 1 363.3765 200.7178)" font-family="'CourierNewPS-BoldMT'" font-size="18">Register</text>
<text transform="matrix(1 0 0 1 385.9956 492.5)" font-family="'CourierNewPS-BoldMT'" font-size="18">Login</text>
<text transform="matrix(1 0 0 1 652.5273 118.3335)" font-family="'CourierNewPS-BoldMT'" font-size="18">Support</text>
<text transform="matrix(1 0 0 1 641.7266 221.6665)" font-family="'CourierNewPS-BoldMT'" font-size="18">promotion</text>
<text transform="matrix(1 0 0 1 647.127 329.6665)" font-family="'CourierNewPS-BoldMT'" font-size="18">tutorial</text>
<text transform="matrix(0.9923 0 0 1 636.4082 492)" font-family="'CourierNewPS-BoldMT'" font-size="18">Profil P/J</text>
<text transform="matrix(1 0 0 1 868.79 489.5)" font-family="'CourierNewPS-BoldMT'" font-size="18">Drag and Drop</text>
<text transform="matrix(1 0 0 1 1135.1943 489.5)" font-family="'CourierNewPS-BoldMT'" font-size="18">message</text>
</svg>
