<?xml version="1.0" encoding="utf-8"?>
<!-- Generator: Adobe Illustrator 16.0.3, SVG Export Plug-In . SVG Version: 6.00 Build 0)  -->
<!DOCTYPE svg PUBLIC "-//W3C//DTD SVG 1.1//EN" "http://www.w3.org/Graphics/SVG/1.1/DTD/svg11.dtd">
<svg version="1.1" id="Layer_1" xmlns="http://www.w3.org/2000/svg" xmlns:xlink="http://www.w3.org/1999/xlink" x="0px" y="0px"
	 width="1024px" height="768px" viewBox="0 0 1024 768" enable-background="new 0 0 1024 768" xml:space="preserve">
<rect x="2.5" y="-0.5" fill="#EDED14" stroke="#000000" stroke-miterlimit="10" width="1024" height="72"/>
<text transform="matrix(1 0 0 1 437.6072 35.5002)" font-family="'ArialMT'" font-size="12">Accueil</text>
<text transform="matrix(1 0 0 1 511.5007 35.5002)" font-family="'ArialMT'" font-size="12">Nous Contacter</text>
<text transform="matrix(1 0 0 1 610.9392 35.5002)" font-family="'ArialMT'" font-size="12">Services</text>
<g>
	<line fill="none" stroke="#000000" stroke-miterlimit="10" x1="884" y1="38.5" x2="956" y2="38.5"/>
	<g>
		<ellipse fill="#FFFFFF" stroke="#000000" stroke-miterlimit="10" cx="945.182" cy="27.765" rx="5.151" ry="5.735"/>
		<line fill="none" stroke="#000000" stroke-miterlimit="10" x1="949.569" y1="30.759" x2="956.394" y2="35.5"/>
	</g>
</g>
<text transform="matrix(1 0 0 1 711.1521 35.5002)" font-family="'ArialMT'" font-size="12">Message</text>
<rect x="2.5" y="353.5" fill="#2DAA2D" stroke="#000000" stroke-miterlimit="10" width="1024" height="275"/>
<rect x="0.5" y="629.5" stroke="#000000" stroke-miterlimit="10" width="1024" height="139"/>
<text transform="matrix(1 0 0 1 242.0002 677.0002)" fill="#FFFFFF" font-family="'ArialMT'" font-size="18">Contact Tel:</text>
<text transform="matrix(1 0 0 1 242.0002 698.5999)" fill="#FFFFFF" font-family="'ArialMT'" font-size="18">01 60 65 54 54</text>
<text transform="matrix(1 0 0 1 516.4998 677.0002)" fill="#FFFFFF" font-family="'ArialMT'" font-size="18">Contact mail</text>
<text transform="matrix(1 0 0 1 516.4998 698.5999)" fill="#FFFFFF" font-family="'ArialMT'" font-size="18">guillouxrem@gmail.com</text>
<text transform="matrix(1 0 0 1 809.4998 677.0002)" fill="#FFFFFF" font-family="'ArialMT'" font-size="18">Inscrivez vous</text>
<text transform="matrix(1 0 0 1 67.0002 677.0002)" fill="#FFFFFF" font-family="'ArialMT'" font-size="18">address</text>
<g>
	<rect x="793" y="684" fill="#EDF23B" width="198" height="27"/>
</g>
<g>
	<rect x="793" y="718" fill="#3CEF3C" width="198" height="27"/>
</g>
<text transform="matrix(1 0 0 1 850.0486 702.8909)" font-family="'ArialMT'" font-size="18">adress mail</text>
<text transform="matrix(1 0 0 1 809.4998 737.0002)" font-family="'ArialMT'" font-size="18">s’abonner maintenant</text>
<text transform="matrix(1 0 0 1 377.5002 407.5002)" font-family="'ArialMT'" font-size="18">Qu’es ce que Partageons-un-Jardin.com?</text>
<text transform="matrix(1 0 0 1 324.5002 465.5002)" font-family="'ArialMT'" font-size="18">Application de service permettant de partager un jardin</text>
<text transform="matrix(1 0 0 1 324.5002 487.0999)" font-family="'ArialMT'" font-size="18">                      Contre un service de jardinage</text>
<rect x="225.292" y="513.5" fill="#FCFAFA" stroke="#050101" stroke-width="3" stroke-miterlimit="10" width="33.417" height="33"/>
<rect x="404.19" y="513.5" fill="#FCFAFA" stroke="#050101" stroke-width="3" stroke-miterlimit="10" width="33.417" height="33"/>
<rect x="633.898" y="513.5" fill="#FCFAFA" stroke="#050101" stroke-width="3" stroke-miterlimit="10" width="33.418" height="33"/>
<text transform="matrix(1 0 0 1 275.5002 539.5002)" font-family="'ArialMT'" font-size="18">Inscription</text>
<text transform="matrix(1 0 0 1 455.4998 539.5002)" font-family="'ArialMT'" font-size="18">Création de profil</text>
<text transform="matrix(1 0 0 1 674.4998 539.5002)" font-family="'ArialMT'" font-size="18">Accès au système de partage</text>
<text transform="matrix(1 0 0 1 202.5002 534.5002)" font-family="'ArialMT'" font-size="24">1</text>
<text transform="matrix(1 0 0 1 202.5002 534.5002)" fill="none" stroke="#000000" stroke-miterlimit="10" font-family="'ArialMT'" font-size="24">1</text>
<text transform="matrix(1 0 0 1 384.5002 534.5002)" font-family="'ArialMT'" font-size="24">2</text>
<text transform="matrix(1 0 0 1 384.5002 534.5002)" fill="none" stroke="#000000" stroke-miterlimit="10" font-family="'ArialMT'" font-size="24">2</text>
<text transform="matrix(1 0 0 1 610.9392 534.5002)" font-family="'ArialMT'" font-size="24">3</text>
<text transform="matrix(1 0 0 1 610.9392 534.5002)" fill="none" stroke="#000000" stroke-miterlimit="10" font-family="'ArialMT'" font-size="24">3</text>
<g>
	
		<image overflow="visible" width="854" height="641" xlink:href="E4852460.jpg"  transform="matrix(0.4111 0 0 0.4417 -0.2493 71.5002)">
	</image>
	
		<image overflow="visible" width="854" height="641" xlink:href="E4852467.jpg"  transform="matrix(0.4074 0 0 0.4393 349.5315 71.8777)">
	</image>
	
		<image overflow="visible" width="957" height="641" xlink:href="E4852463.jpg"  transform="matrix(0.3449 0 0 0.4393 696.3875 71.8777)">
	</image>
</g>
</svg>
