<?xml version="1.0" encoding="utf-8"?>
<!-- Generator: Adobe Illustrator 16.0.3, SVG Export Plug-In . SVG Version: 6.00 Build 0)  -->
<!DOCTYPE svg PUBLIC "-//W3C//DTD SVG 1.1//EN" "http://www.w3.org/Graphics/SVG/1.1/DTD/svg11.dtd">
<svg version="1.1" id="Layer_1" xmlns="http://www.w3.org/2000/svg" xmlns:xlink="http://www.w3.org/1999/xlink" x="0px" y="0px"
	 width="1024px" height="768px" viewBox="0 0 1024 768" enable-background="new 0 0 1024 768" xml:space="preserve">
<rect x="2.5" y="-0.5" fill="#EDED14" stroke="#000000" stroke-miterlimit="10" width="1024" height="72"/>
<text transform="matrix(1 0 0 1 437.6067 35.5002)" font-family="'ArialMT'" font-size="12">Accueil</text>
<text transform="matrix(1 0 0 1 511.5002 35.5002)" font-family="'ArialMT'" font-size="12">Nous Contacter</text>
<text transform="matrix(1 0 0 1 610.9392 35.5002)" font-family="'ArialMT'" font-size="12">Services</text>
<g>
	<line fill="none" stroke="#000000" stroke-miterlimit="10" x1="884" y1="38.5" x2="956" y2="38.5"/>
	<g>
		<ellipse fill="#FFFFFF" stroke="#000000" stroke-miterlimit="10" cx="945.182" cy="27.765" rx="5.151" ry="5.735"/>
		<line fill="none" stroke="#000000" stroke-miterlimit="10" x1="949.569" y1="30.759" x2="956.394" y2="35.5"/>
	</g>
</g>
<text transform="matrix(1 0 0 1 711.1521 35.5002)" font-family="'ArialMT'" font-size="12">Message</text>
<rect x="1" y="72" fill="#FFFDFD" width="1023" height="282"/>
<rect x="2.5" y="353.5" fill="#2DAA2D" stroke="#000000" stroke-miterlimit="10" width="1024" height="275"/>
<g>
	
		<image overflow="visible" enable-background="new    " width="569" height="485" xlink:href="E4852462.jpeg"  transform="matrix(0.5838 0 0 0.5824 -2.439916e-004 71.5588)">
	</image>
	
		<image overflow="visible" enable-background="new    " width="570" height="456" xlink:href="E4852466.jpeg"  transform="matrix(0.6192 0 0 0.6197 332.1707 71.1663)">
	</image>
	
		<image overflow="visible" enable-background="new    " width="570" height="476" xlink:href="E4852466.jpeg"  transform="matrix(0.5936 0 0 0.5928 685.1501 71.5598)">
	</image>
</g>
<rect x="0.5" y="629.5" stroke="#000000" stroke-miterlimit="10" width="1024" height="139"/>
<text transform="matrix(1 0 0 1 242.0002 677.0002)" fill="#FFFFFF" font-family="'ArialMT'" font-size="18">Contact Tel:</text>
<text transform="matrix(1 0 0 1 242.0002 698.5999)" fill="#FFFFFF" font-family="'ArialMT'" font-size="18">01 60 65 54 54</text>
<text transform="matrix(1 0 0 1 516.4998 677.0002)" fill="#FFFFFF" font-family="'ArialMT'" font-size="18">Contact mail</text>
<text transform="matrix(1 0 0 1 516.4998 698.5999)" fill="#FFFFFF" font-family="'ArialMT'" font-size="18">guillouxrem@gmail.com</text>
<text transform="matrix(1 0 0 1 809.4998 677.0002)" fill="#FFFFFF" font-family="'ArialMT'" font-size="18">Inscrivez vous</text>
<text transform="matrix(1 0 0 1 67.0002 677.0002)" fill="#FFFFFF" font-family="'ArialMT'" font-size="18">address</text>
<g>
	<rect x="793" y="684" fill="#EDF23B" width="198" height="27"/>
</g>
<g>
	<rect x="793" y="718" fill="#3CEF3C" width="198" height="27"/>
</g>
<text transform="matrix(1 0 0 1 850.0486 702.8909)" font-family="'ArialMT'" font-size="18">adress mail</text>
<text transform="matrix(1 0 0 1 809.4998 737.0002)" font-family="'ArialMT'" font-size="18">s’abonner maintenant</text>
<text transform="matrix(1 0 0 1 377.4998 407.5002)" font-family="'Myriad-Roman'" font-size="18">Qu’es ce que Partageons-un-Jardin.com?</text>
<text transform="matrix(1 0 0 1 324.4998 465.5002)"><tspan x="0" y="0" font-family="'Myriad-Roman'" font-size="18">Application de service permettant de partager un jardin</tspan><tspan x="0" y="21.6" font-family="'Myriad-Roman'" font-size="18">                      Contre un service de jardinage</tspan></text>
<rect x="225.292" y="513.5" fill="#FCFAFA" stroke="#050101" stroke-width="3" stroke-miterlimit="10" width="33.417" height="33"/>
<rect x="404.19" y="513.5" fill="#FCFAFA" stroke="#050101" stroke-width="3" stroke-miterlimit="10" width="33.417" height="33"/>
<rect x="633.898" y="513.5" fill="#FCFAFA" stroke="#050101" stroke-width="3" stroke-miterlimit="10" width="33.418" height="33"/>
<text transform="matrix(1 0 0 1 275.4998 539.5002)" font-family="'Myriad-Roman'" font-size="18">Inscription</text>
<text transform="matrix(1 0 0 1 455.4998 539.5002)" font-family="'Myriad-Roman'" font-size="18">Création de profil</text>
<text transform="matrix(1 0 0 1 674.4998 539.5002)" font-family="'Myriad-Roman'" font-size="18">Accès au système de partage</text>
<text transform="matrix(1 0 0 1 202.4998 534.5002)" stroke="#000000" stroke-miterlimit="10" font-family="'Myriad-Roman'" font-size="24">1</text>
<text transform="matrix(1 0 0 1 384.4998 534.5002)" stroke="#000000" stroke-miterlimit="10" font-family="'Myriad-Roman'" font-size="24">2</text>
<text transform="matrix(1 0 0 1 610.9392 534.5002)" stroke="#000000" stroke-miterlimit="10" font-family="'Myriad-Roman'" font-size="24">3</text>
</svg>
